{
 "cells": [
  {
   "cell_type": "code",
   "execution_count": 3,
   "id": "a67f6be0",
   "metadata": {},
   "outputs": [
    {
     "name": "stdout",
     "output_type": "stream",
     "text": [
      "$ yt-dlp --no-playlist --download-sections *0-60 -f bestaudio[abr<=192]/bestaudio -x --audio-format wav --postprocessor-args -ac 1 -ar 22050 --force-overwrites -o /var/folders/4s/s9js6x7s1nzfw2v3bnsd834r0000gn/T/tmpnzt5u991.wav https://www.youtube.com/watch?v=K-IGRdxID4I&list=RDK-IGRdxID4I&start_radio=1&pp=ygULZ-y9lOuTnCBjY22gBwE%3D\n",
      "returncode: 0\n",
      "stdout:\n",
      " [youtube:tab] Extracting URL: https://www.youtube.com/watch?v=K-IGRdxID4I&list=RDK-IGRdxID4I&start_radio=1&pp=ygULZ-y9lOuTnCBjY22gBwE%3D\n",
      "[youtube:tab] Downloading just the video K-IGRdxID4I because of --no-playlist\n",
      "[youtube] Extracting URL: https://www.youtube.com/watch?v=K-IGRdxID4I\n",
      "[youtube] K-IGRdxID4I: Downloading webpage\n",
      "[youtube] K-IGRdxID4I: Downloading android sdkless player API JSON\n",
      "[youtube] K-IGRdxID4I: Downloading web safari player API JSON\n",
      "[youtube] K-IGRdxID4I: Downloading m3u8 information\n",
      "[info] K-IGRdxID4I: Downloading 1 format(s): 251\n",
      "[info] K-IGRdxID4I: Downloading 1 time ranges: 0.0-60.0\n",
      "Deleting existing file /var/folders/4s/s9js6x7s1nzfw2v3bnsd834r0000gn/T/tmpnzt5u991.wav\n",
      "[download] Destination: /var/folders/4s/s9js6x7s1nzfw2v3bnsd834r0000gn/T/tmpnzt5u991.webm\n",
      "\n",
      "[download] 100% of    1.15MiB in 00:00:00 at 4.09MiB/s\n",
      "[ExtractAudio] Destination: /var/folders/4s/s9js6x7s1nzfw2v3bnsd834r0000gn/T/tmpnzt5u991.wav\n",
      "Deleting original file /var/folders/4s/s9js6x7s1nzfw2v3bnsd834r0000gn/T/tmpnzt5u991.webm (pass -k to keep)\n",
      "\n",
      "stderr:\n",
      " WARNING: Post-Processor arguments given without specifying name. The arguments will be given to all post-processors\n",
      "WARNING: [youtube] No supported JavaScript runtime could be found. Only deno is enabled by default; to use another runtime add  --js-runtimes RUNTIME[:PATH]  to your command/config. YouTube extraction without a JS runtime has been deprecated, and some formats may be missing. See  https://github.com/yt-dlp/yt-dlp/wiki/EJS  for details on installing one\n",
      "WARNING: [youtube] K-IGRdxID4I: Some web_safari client https formats have been skipped as they are missing a url. YouTube is forcing SABR streaming for this client. See  https://github.com/yt-dlp/yt-dlp/issues/12482  for more details\n",
      "WARNING: [youtube] K-IGRdxID4I: Some web client https formats have been skipped as they are missing a url. YouTube is forcing SABR streaming for this client. See  https://github.com/yt-dlp/yt-dlp/issues/12482  for more details\n",
      "Input #0, matroska,webm, from 'https://rr4---sn-ab02a0nfpgxapox-bh26d.googlevideo.com/videoplayback?expire=1766903761&ei=cXtQaZacCpvs2roP7ZKimQw&ip=49.167.134.50&id=o-AE6VEVUHMBXHbdW0cs1yt9m7qhKo9L1BIdf73VE5spSp&itag=251&source=youtube&requiressl=yes&xpc=EgVo2aDSNQ%3D%3D&cps=0&met=1766882161%2C&mh=ek&mm=31%2C26&mn=sn-ab02a0nfpgxapox-bh26d%2Csn-ojun55-55&ms=au%2Conr&mv=m&mvi=4&pl=17&rms=au%2Cau&initcwndbps=4125000&bui=AYUSA3A086bHCkiaHgZVXE5cPVu0-2PMDN_3dU1pqY035KaHJV5_2E20tYuFjmGTpweCT_MtqV98Z9u6&spc=wH4Qq7zYRTiZ&vprv=1&svpuc=1&mime=audio%2Fwebm&rqh=1&gir=yes&clen=5776233&dur=289.081&lmt=1744524079149042&mt=1766881750&fvip=1&keepalive=yes&fexp=51552689%2C51565116%2C51565682%2C51580968&c=ANDROID&txp=5318224&sparams=expire%2Cei%2Cip%2Cid%2Citag%2Csource%2Crequiressl%2Cxpc%2Cbui%2Cspc%2Cvprv%2Csvpuc%2Cmime%2Crqh%2Cgir%2Cclen%2Cdur%2Clmt&sig=AJfQdSswRQIhAP0Yl_1KTdlSDMSyZ6J5Tvu8r85sqzSDgP99hKyETcKDAiBU7SDsFD7Ao14Ik75YnVv2K_rE0Kkv45ltQz7EUonl6w%3D%3D&lsparams=cps%2Cmet%2Cmh%2Cmm%2Cmn%2Cms%2Cmv%2Cmvi%2Cpl%2Crms%2Cinitcwndbps&lsig=APaTxxMwRAIgP8Kr1FnjSWBoK9cFeqAqe3YkItGiD_1RjJRq0rGkOWACIG6eE6nQH3FUguw8JbojAHlUBwJgx6EMRoGgTSMq_rts':\n",
      "  Metadata:\n",
      "    encoder         : google/video-file\n",
      "  Duration: 00:04:49.08, start: -0.007000, bitrate: 159 kb/s\n",
      "  Stream #0:0(eng): Audio: opus, 48000 Hz, stereo, fltp, start -0.007000 (default)\n",
      "Stream mapping:\n",
      "  Stream #0:0 -> #0:0 (copy)\n",
      "Output #0, webm, to 'file:/var/folders/4s/s9js6x7s1nzfw2v3bnsd834r0000gn/T/tmpnzt5u991.webm.part':\n",
      "  Metadata:\n",
      "    encoder         : Lavf62.3.100\n",
      "  Stream #0:0(eng): Audio: opus, 48000 Hz, stereo, fltp (default)\n",
      "Press [q] to stop, [?] for help\n",
      "[out#0/webm @ 0x126504200] video:0KiB audio:1157KiB subtitle:0KiB other streams:0KiB global headers:0KiB muxing overhead: 1.842112%\n",
      "size=    1178KiB time=00:01:00.00 bitrate= 160.8kbits/s speed= 533x elapsed=0:00:00.11    \n",
      "\n",
      "file: /var/folders/4s/s9js6x7s1nzfw2v3bnsd834r0000gn/T/tmpnzt5u991.wav exists: True size: 2645792\n"
     ]
    }
   ],
   "source": [
    "import subprocess, tempfile, os\n",
    "from pathlib import Path\n",
    "\n",
    "url = \"https://www.youtube.com/watch?v=K-IGRdxID4I&list=RDK-IGRdxID4I&start_radio=1&pp=ygULZ-y9lOuTnCBjY22gBwE%3D\"  # list= 파라미터 제거 권장\n",
    "\n",
    "tmp = tempfile.NamedTemporaryFile(suffix=\".wav\", delete=False)\n",
    "tmp_path = Path(tmp.name)\n",
    "tmp.close()\n",
    "\n",
    "cmd = [\n",
    "    \"yt-dlp\",\n",
    "    \"--no-playlist\",\n",
    "    \"--download-sections\", \"*0-60\",\n",
    "    \"-f\", \"bestaudio[abr<=192]/bestaudio\",\n",
    "    \"-x\",\n",
    "    \"--audio-format\", \"wav\",\n",
    "    \"--postprocessor-args\", \"-ac 1 -ar 22050\",\n",
    "    \"--force-overwrites\",\n",
    "    \"-o\", str(tmp_path),\n",
    "    url,\n",
    "]\n",
    "\n",
    "\n",
    "print(\"$\", \" \".join(cmd))\n",
    "res = subprocess.run(cmd, capture_output=True, text=True)\n",
    "print(\"returncode:\", res.returncode)\n",
    "print(\"stdout:\\n\", res.stdout[:2000])\n",
    "print(\"stderr:\\n\", res.stderr[:4000])\n",
    "\n",
    "print(\"file:\", tmp_path, \"exists:\", tmp_path.exists(), \"size:\", tmp_path.stat().st_size if tmp_path.exists() else None)"
   ]
  }
 ],
 "metadata": {
  "kernelspec": {
   "display_name": "worship_ppt",
   "language": "python",
   "name": "python3"
  },
  "language_info": {
   "codemirror_mode": {
    "name": "ipython",
    "version": 3
   },
   "file_extension": ".py",
   "mimetype": "text/x-python",
   "name": "python",
   "nbconvert_exporter": "python",
   "pygments_lexer": "ipython3",
   "version": "3.10.11"
  }
 },
 "nbformat": 4,
 "nbformat_minor": 5
}
